<svg t="1684404415936" class="icon" viewBox="0 0 1901 1024" version="1.1" xmlns="http://www.w3.org/2000/svg" p-id="1587" width="32" height="32"><path d="M1377.4848 683.359086V361.998629h319.517257l168.082286 168.053028V838.509714h-195.7888l-4.827429-26.302171a153.746286 153.746286 0 0 0-74.517943-105.384229l-1.8432-1.053257a167.760457 167.760457 0 0 0-83.704685-22.381714h-126.917486z" fill="#0055B1" p-id="1588"></path><path d="M1696.914286 672.914286H284.584229L263.314286 789.942857h1433.6v-117.028571z" fill="#0055B1" p-id="1589"></path><path d="M1491.412114 690.117486c88.795429 0 162.260114 66.325943 162.260115 149.738057V848.457143H1843.2v-17.2032h-169.3696C1668.944457 743.687314 1589.8624 672.914286 1491.412114 672.914286H1404.342857v17.2032h87.069257z" fill="#D9D9D9" p-id="1590"></path><path d="M613.1712 843.5712l-32.885029-127.912229 21.445486-5.5296 33.5872 130.6624v91.867429h-22.147657v-89.088zM273.349486 843.5712l32.885028-127.912229-21.474743-5.5296-33.5872 130.6624v91.867429h22.176915v-89.088z" fill="#868686" p-id="1591"></path><path d="M321.360457 875.198171v-25.365942h3.2768c0.877714-9.303771 2.779429-18.285714 5.500343-26.916572l-2.984229-1.258057 10.005943-23.317943 3.013486 1.287314a130.486857 130.486857 0 0 1 13.458286-19.894857l-2.311315-2.282057 17.934629-17.934628 2.340571 2.311314c6.261029-5.178514 13.048686-9.771886 20.216686-13.692343l-1.258057-3.013486 23.317943-9.947428 1.287314 2.984228c8.484571-2.6624 17.349486-4.476343 26.477714-5.354057v-3.2768h25.365943v3.2768c8.309029 0.789943 16.325486 2.428343 24.078629 4.681143l1.2288-3.042743 23.552 9.479314-1.258057 3.072c8.016457 4.183771 15.5648 9.098971 22.469485 14.804115l2.311315-2.311315 17.934628 17.934629-2.311314 2.311314c5.178514 6.290286 9.771886 13.048686 13.692343 20.245943l3.013486-1.258057 9.947428 23.317943-2.984228 1.287314c2.633143 8.484571 4.476343 17.349486 5.354057 26.477714h3.2768v25.365943h-3.2768c-0.877714 9.303771-2.779429 18.285714-5.500343 26.916572l2.984228 1.258057-10.005942 23.317943-3.013486-1.287315c-3.8912 7.021714-8.3968 13.692343-13.458286 19.894858l2.311314 2.282057-17.934628 17.934628-2.311314-2.311314a130.194286 130.194286 0 0 1-20.245943 13.692343l1.258057 2.984228-23.317943 9.947429-1.287314-2.984229c-8.484571 2.691657-17.349486 4.5056-26.477715 5.383315v3.2768h-25.365942v-3.2768a129.696914 129.696914 0 0 1-24.078629-4.681143l-1.2288 3.042743-23.552-9.508572 1.258057-3.042743a129.726171 129.726171 0 0 1-22.469486-14.804114l-2.340571 2.311314-17.905371-17.934628 2.282057-2.311314a130.106514 130.106514 0 0 1-13.692343-20.245943l-2.984229 1.258057-9.947428-23.3472 2.984228-1.258057a129.404343 129.404343 0 0 1-5.383314-26.477715h-3.247543z" fill="#666666" p-id="1592"></path><path d="M452.022857 981.723429a118.725486 118.725486 0 0 1-118.608457-118.608458 118.725486 118.725486 0 0 1 118.608457-118.608457 118.725486 118.725486 0 0 1 118.5792 118.608457 118.754743 118.754743 0 0 1-118.5792 118.608458z m0-224.109715a105.618286 105.618286 0 0 0-105.530514 105.501257 105.618286 105.618286 0 0 0 105.530514 105.501258 105.618286 105.618286 0 0 0 105.501257-105.501258 105.618286 105.618286 0 0 0-105.501257-105.530514z" fill="#EDECED" opacity=".2" p-id="1593"></path><path d="M373.701486 863.085714a78.292114 78.292114 0 1 0 156.584228 0 78.292114 78.292114 0 0 0-156.584228 0z" fill="#EDECED" p-id="1594"></path><path d="M391.285029 863.085714a60.708571 60.708571 0 1 0 121.417142 0 60.708571 60.708571 0 0 0-121.417142 0z" fill="#B3B1B1" p-id="1595"></path><path d="M432.303543 863.085714a19.690057 19.690057 0 1 0 39.409371 0 19.690057 19.690057 0 0 0-39.409371 0z" fill="#706F70" p-id="1596"></path><path d="M1322.364343 843.5712l32.914286-127.912229-21.474743-5.5296-33.5872 130.6624v91.867429h22.147657v-89.088z" fill="#868686" p-id="1597"></path><path d="M1348.227657 875.198171v-25.365942h3.2768c0.877714-9.303771 2.779429-18.285714 5.5296-26.916572l-3.013486-1.258057 10.0352-23.317943 2.984229 1.287314a130.486857 130.486857 0 0 1 13.458286-19.894857l-2.282057-2.282057 17.934628-17.934628 2.282057 2.311314c6.290286-5.178514 13.077943-9.771886 20.245943-13.692343l-1.258057-3.013486 23.3472-9.947428 1.258057 2.984228c8.484571-2.6624 17.349486-4.476343 26.506972-5.354057v-3.2768h25.365942v3.2768c8.279771 0.789943 16.296229 2.428343 24.049372 4.681143l1.258057-3.042743 23.522743 9.479314-1.2288 3.072c7.9872 4.183771 15.535543 9.098971 22.440228 14.804115l2.340572-2.311315 17.905371 17.934629-2.282057 2.311314c5.149257 6.290286 9.742629 13.048686 13.663086 20.245943l3.013486-1.258057 9.947428 23.317943-2.984228 1.287314c2.6624 8.484571 4.476343 17.349486 5.354057 26.477714h3.2768v25.365943h-3.2768c-0.877714 9.303771-2.779429 18.285714-5.500343 26.916572l2.984228 1.258057-10.005942 23.317943-3.013486-1.287315a131.364571 131.364571 0 0 1-13.458286 19.894858l2.311314 2.282057-17.934628 17.934628-2.311314-2.311314a130.194286 130.194286 0 0 1-20.245943 13.692343l1.287314 2.984228-23.3472 9.947429-1.287314-2.984229c-8.484571 2.691657-17.349486 4.5056-26.477715 5.383315v3.2768h-25.365942v-3.2768a129.696914 129.696914 0 0 1-24.078629-4.681143l-1.2288 3.042743-23.522743-9.508572 1.2288-3.042743a129.726171 129.726171 0 0 1-22.469486-14.804114L1396.150857 965.485714l-17.934628-17.934628 2.311314-2.311315a130.311314 130.311314 0 0 1-13.692343-20.245942l-3.013486 1.258057-9.947428-23.3472 2.984228-1.258057a129.404343 129.404343 0 0 1-5.354057-26.477715h-3.2768z" fill="#666666" p-id="1598"></path><path d="M1478.890057 981.723429a118.725486 118.725486 0 0 1-118.608457-118.608458 118.725486 118.725486 0 0 1 118.608457-118.608457 118.725486 118.725486 0 0 1 118.608457 118.608457 118.754743 118.754743 0 0 1-118.608457 118.608458z m0-224.109715a105.618286 105.618286 0 0 0-105.501257 105.501257 105.618286 105.618286 0 0 0 105.501257 105.501258 105.618286 105.618286 0 0 0 105.501257-105.501258 105.618286 105.618286 0 0 0-105.501257-105.530514z" fill="#EDECED" opacity=".2" p-id="1599"></path><path d="M1400.568686 863.085714a78.292114 78.292114 0 1 0 156.584228 0 78.292114 78.292114 0 0 0-156.584228 0z" fill="#EDECED" p-id="1600"></path><path d="M1418.181486 863.085714a60.708571 60.708571 0 1 0 121.417143 0 60.708571 60.708571 0 0 0-121.417143 0z" fill="#B3B1B1" p-id="1601"></path><path d="M1459.2 863.085714a19.690057 19.690057 0 1 0 39.380114 0 19.690057 19.690057 0 0 0-39.380114 0z" fill="#706F70" p-id="1602"></path><path d="M0 340.202057L55.530057 731.428571H1413.997714V177.649371l90.697143-73.698742L1521.371429 0h-99.9424l-12.960915 43.476114-22.206171 28.350172-99.9424-1.901715v41.5744H94.383543L0 340.202057z" fill="#007AFF" p-id="1603"></path><path d="M1404.342857 497.371429H29.257143l23.932343 175.542857H1404.342857v-175.542857z" fill="#66AFFF" p-id="1604"></path><path d="M1411.013486 672.270629H46.167771l5.558858 33.236114h1359.286857v-33.236114zM1872.457143 546.669714v181.013943h-221.622857l-4.447086-4.768914a190.844343 190.844343 0 0 0-91.867429-54.593829l-5.558857-1.4336a238.211657 238.211657 0 0 0-59.509028-7.548343h-32.533943v-112.64H1872.457143zM1482.752 203.1616L1811.514514 241.956571l20.304457 9.216 9.245258 14.774858L1872.457143 546.669714H1456.917943V229.024914l5.5296-20.333714 20.304457-5.558857z" fill="#007AFF" p-id="1605"></path><path d="M1492.114286 434.029714v-153.307428h221.622857l25.863314 12.931657 16.618057 201.289143h-84.962743l-70.187885-35.079315h-90.492343L1492.114286 434.029714z" fill="#B7E2EC" p-id="1606"></path><path d="M1590.008686 284.408686h21.825828l137.0112 210.563657h-19.309714l-139.556571-210.563657zM1493.957486 365.099886V291.810743l103.424 166.209828h-48.713143l-54.710857-92.920685z" fill="#FFFFFF" p-id="1607"></path><path d="M1824.095086 481.104457l-12.112457-44.178286-8.074972-2.048-14.1312 6.056229-4.037486 24.078629 28.2624 24.107885 10.093715-8.016457z" fill="#B7E2EC" p-id="1608"></path><path d="M1816.020114 324.432457l-16.149943-16.091428-14.1312 6.056228-8.074971 12.053943 8.074971 96.402286 18.168686 10.0352 18.197943-14.043429-6.085486-94.4128z" fill="#B7E2EC" p-id="1609"></path><path d="M1872.457143 745.618286l-4.885943-8.864915-12.170971-5.3248H1755.428571v117.028572h117.028572v-102.838857z" fill="#999999" p-id="1610"></path><path d="M292.571429 58.514286h58.514285v175.542857h-58.514285zM497.371429 58.514286h58.514285v175.542857h-58.514285zM702.171429 58.514286h58.514285v175.542857h-58.514285zM906.971429 58.514286h58.514285v175.542857h-58.514285zM1111.771429 58.514286h58.514285v175.542857h-58.514285z" fill="#007AFF" p-id="1611"></path><path d="M859.428571 258.954971c-7.226514 3.393829-11.995429 7.168-11.995428 9.537829 0 0.702171 1.755429 1.726171 3.8912 2.2528 7.694629 1.8432 17.173943 7.665371 23.844571 14.628571 5.851429 6.114743 13.224229 17.876114 31.685486 50.761143 2.223543 3.920457 7.606857 13.165714 11.936914 20.597029 4.388571 7.402057 7.928686 13.955657 7.928686 14.570057 0 0.585143-2.545371 2.428343-5.675886 4.008229-6.114743 3.159771-7.109486 5.090743-3.159771 6.261028 18.0224 5.266286 41.603657 11.117714 42.276571 10.474057 0.760686-0.789943 10.210743-33.265371 12.434286-42.715428 1.111771-4.827429 0.760686-4.856686-6.9632-0.292572l-6.202514 3.657143-3.452343-5.5296a2428.781714 2428.781714 0 0 1-22.879086-39.643428c-10.678857-18.753829-21.738057-36.571429-24.576-39.643429-8.104229-8.630857-17.144686-12.288-30.661486-12.288-8.894171 0-12.843886 0.731429-18.432 3.364571z m-20.977371 20.509258c-1.8432 2.925714-7.168 12.0832-11.819886 20.304457-24.810057 43.8272-47.689143 83.5584-48.771657 84.757943-2.8672 3.130514-0.789943 6.144 7.606857 11.000685 16.881371 9.742629 19.602286 11.146971 21.386972 11.146972 1.024 0 14.189714-21.562514 29.257143-47.952457 24.312686-42.539886 27.472457-48.771657 28.028342-55.5008a26.0096 26.0096 0 0 0-12.229485-24.9856c-3.540114-2.2528-7.285029-4.096-8.279772-4.096-0.994743 0-3.335314 2.399086-5.178514 5.3248z m134.670629 136.981942c-7.548343 4.417829-13.750857 8.981943-13.780115 10.122972-0.029257 1.111771 4.768914 10.415543 10.678857 20.655543l27.969829 48.479085c16.1792 28.086857 17.6128 30.076343 23.7568 33.236115 3.569371 1.8432 9.0112 3.393829 12.0832 3.423085 5.675886 0.087771 19.075657-4.856686 21.650286-7.928685 0.936229-1.170286-4.534857-11.849143-18.197943-35.371886-10.737371-18.490514-19.894857-34.523429-20.362972-35.576686-3.364571-7.811657-26.389943-44.704914-27.999085-44.880457-1.111771-0.117029-8.192 3.393829-15.798857 7.840914z m-218.609372 11.527315c-11.029943 2.984229-20.801829 5.909943-21.767314 6.495085-1.170286 0.731429 0.438857 2.4576 4.856686 5.266286l6.641371 4.096-2.750171 4.593372a4766.193371 4766.193371 0 0 0-36.893258 64.453485c-4.037486 7.021714-7.928686 15.067429-8.689371 17.8176-5.061486 18.256457 3.569371 38.824229 20.333714 48.508343 9.537829 5.500343 12.668343 5.588114 11.205486 0.292572a91.3408 91.3408 0 0 1-0.994743-16.296229c0.087771-11.556571 0.468114-13.194971 5.675886-23.522743 4.5056-8.923429 42.1888-75.190857 43.914971-77.238857 0.263314-0.292571 3.364571 1.199543 6.904686 3.2768l6.436571 3.803429-0.117028-3.247543a255.531886 255.531886 0 0 0-5.3248-23.230172c-3.627886-13.867886-5.851429-20.011886-7.314286-20.187428-1.170286-0.175543-11.117714 2.165029-22.1184 5.12z m297.603657 106.466743a75.483429 75.483429 0 0 1-13.458285 8.777142l-7.870172 3.861943-50.614857 0.438857-50.614857 0.4096v-7.197257c0-3.949714-0.497371-7.168-1.082514-7.168-1.6384 0-32.914286 31.890286-32.914286 33.528686 0 1.579886 31.305143 33.440914 32.885028 33.440914 0.526629 0 1.170286-3.364571 1.375086-7.460571l0.438857-7.489829 50.263772-0.731428 50.263771-0.702172 7.7824-4.388571c14.570057-8.279771 24.341943-27.121371 22.059886-42.510629-0.526629-3.569371-1.404343-6.729143-1.960229-7.080228-0.526629-0.321829-3.510857 1.579886-6.5536 4.271543z m-301.816685 15.389257c-6.202514 2.720914-14.248229 11.527314-15.272229 16.735085-0.468114 2.428343-0.877714 7.519086-0.877714 11.351772v6.933943H867.240229v-37.039543l-56.261486 0.058514c-43.944229 0.029257-57.256229 0.468114-60.679314 1.960229z" fill="#FFFFFF" p-id="1612"></path></svg>